<svg width="24" height="28" viewBox="0 0 24 28" fill="none" xmlns="http://www.w3.org/2000/svg">
<path id="Vector" d="M0.405396 24.8526L2.43517 20.9834C4.78543 22.5955 8.41766 23.7778 11.9431 23.7778C16.5367 23.7778 18.3529 22.3806 18.3529 20.0161C18.3529 13.8898 1.1532 19.1562 1.1532 8.30097C1.1532 3.35699 5.53325 0.13266 12.4772 0.13266C16.0026 0.13266 20.0621 1.09996 22.4124 2.60465L20.2758 6.47385C17.8187 4.86168 15.148 4.3243 12.4772 4.3243C8.204 4.3243 6.0674 5.93646 6.0674 8.08602C6.0674 14.5347 23.267 9.26828 23.267 19.9086C23.267 24.8526 18.7802 27.9694 11.5157 27.9694C7.1357 28.0769 2.64883 26.6797 0.405396 24.8526Z" fill="white"/>
</svg>
